<?xml version="1.0" encoding="UTF-8"?>
<!DOCTYPE svg PUBLIC "-//W3C//DTD SVG 1.1//EN" "http://www.w3.org/Graphics/SVG/1.1/DTD/svg11.dtd">
<!-- Creator: CorelDRAW 2021 (64 Bit) -->
<svg xmlns="http://www.w3.org/2000/svg" xml:space="preserve" width="3041px" height="503px" version="1.1" style="shape-rendering:geometricPrecision; text-rendering:geometricPrecision; image-rendering:optimizeQuality; fill-rule:evenodd; clip-rule:evenodd"
viewBox="0 0 835.93 138.38"
 xmlns:xlink="http://www.w3.org/1999/xlink"
 xmlns:xodm="http://www.corel.com/coreldraw/odm/2003">
 <defs>
  <style type="text/css">
   <![CDATA[
    .str0 {stroke:#EF3B2D;stroke-width:4.87;stroke-miterlimit:22.9256}
    .fil0 {fill:none}
    .fil1 {fill:#EF3B2D}
    .fil3 {fill:#FEFEFE;fill-rule:nonzero}
    .fil4 {fill:#EF3B2D;fill-rule:nonzero}
    .fil2 {fill:#EF3B2D;fill-rule:nonzero}
   ]]>
  </style>
 </defs>
 <g id="Camada_x0020_1">
  <metadata id="CorelCorpID_0Corel-Layer"/>
  <rect class="fil0 str0" x="164.02" y="6.76" width="474.92" height="124.86"/>
  <rect class="fil1 str0" x="638.94" y="6.76" width="194.56" height="124.86"/>
  <path class="fil2" d="M250.82 105.2l-14.89 0 -20.55 -29.64 -11.02 0 0 29.64 -12.75 0 0 -69.71 12.75 0 0 29.64 11.02 0 20.55 -29.64 14.89 0 -24.19 34.88 24.19 34.83zm28.92 -9.31l0 9.31 -19.74 0 0 -69.71 11.61 0 0 60.4 8.13 0zm51.95 -13.94c0,1.2 -0.04,2.03 -0.1,2.55l-36.91 0c0.63,3.27 2.23,5.98 4.79,8.15 2.57,2.16 5.55,3.24 8.96,3.24 2.04,0 3.98,-0.42 5.8,-1.26 1.84,-0.84 3.37,-1.98 4.65,-3.47l7.84 6.86c-2.28,2.61 -4.99,4.66 -8.15,6.14 -3.18,1.47 -6.55,2.21 -10.14,2.21 -4.41,0 -8.49,-1.09 -12.25,-3.27 -3.74,-2.19 -6.71,-5.16 -8.87,-8.92 -2.18,-3.74 -3.27,-7.83 -3.27,-12.23 0,-4.42 1.09,-8.5 3.27,-12.24 2.16,-3.76 5.13,-6.71 8.87,-8.89 3.76,-2.18 7.84,-3.26 12.25,-3.26 3.13,0 6.11,0.65 8.98,1.94 2.87,1.29 5.34,3.01 7.44,5.19 2.09,2.18 3.76,4.78 4.98,7.78 1.23,3.01 1.86,6.17 1.86,9.48zm-36.49 -4.45l25.32 0c-0.88,-2.81 -2.42,-5.08 -4.63,-6.82 -2.21,-1.76 -4.69,-2.63 -7.46,-2.63 -3.02,0 -5.75,0.87 -8.15,2.63 -2.42,1.74 -4.11,4.01 -5.08,6.82zm45.18 -18.76l27.88 0 0 9.31 -16.26 0 0 37.15 -11.62 0 0 -46.46zm69.27 0l11.58 0 0 70.67 -35.39 0 0 -9.3 23.81 0 0 -19.27c-3.41,3.69 -8.05,5.53 -13.94,5.53 -6.34,0 -11.21,-2.11 -14.63,-6.32 -3.42,-4.23 -5.13,-10.26 -5.13,-18.1l0 -23.21 11.63 0 0 23.21c0,4.47 0.95,7.91 2.84,10.32 1.89,2.41 4.61,3.62 8.18,3.62 3.55,0 6.29,-1.21 8.19,-3.62 1.91,-2.41 2.86,-5.85 2.86,-10.32l0 -23.21zm34.41 13.37c0,1.32 0.51,2.39 1.54,3.16 1.02,0.79 2.36,1.37 3.99,1.73 1.64,0.37 3.45,0.68 5.43,0.95 1.99,0.27 3.97,0.66 5.96,1.18 1.98,0.51 3.8,1.22 5.43,2.11 1.65,0.87 2.97,2.21 4,3.99 1.02,1.79 1.54,3.98 1.54,6.59 0,4.67 -1.75,8.26 -5.2,10.78 -3.47,2.52 -8.42,3.77 -14.84,3.77 -6.44,0 -11.37,-1.3 -14.84,-3.92 -3.47,-2.61 -5.19,-6.34 -5.19,-11.19l11.61 0c0,1.89 0.73,3.32 2.18,4.32 1.45,0.99 3.53,1.49 6.24,1.49 2.71,0 4.79,-0.46 6.23,-1.34 1.45,-0.91 2.18,-2.21 2.18,-3.91 0,-1.32 -0.5,-2.38 -1.54,-3.16 -1.01,-0.79 -2.35,-1.37 -4,-1.72 -1.63,-0.38 -3.43,-0.68 -5.42,-0.96 -2,-0.27 -3.98,-0.66 -5.97,-1.17 -1.98,-0.52 -3.79,-1.23 -5.43,-2.12 -1.63,-0.87 -2.97,-2.21 -3.99,-3.98 -1.03,-1.78 -1.53,-3.99 -1.53,-6.6 0,-4.66 1.68,-8.26 5.05,-10.77 3.37,-2.52 8.18,-3.78 14.42,-3.78 6.23,0 11.03,1.31 14.41,3.92 3.37,2.61 5.06,6.36 5.06,11.2l-11.63 0c0,-1.89 -0.68,-3.33 -2.03,-4.33 -1.36,-0.98 -3.29,-1.48 -5.81,-1.48 -2.53,0 -4.47,0.45 -5.82,1.34 -1.36,0.9 -2.03,2.21 -2.03,3.9zm58.26 23.78l0 9.31 -19.74 0 0 -54.2 11.61 0 0 7.74 7.57 0 0 9.31 -7.57 0 0 27.84 8.13 0zm18.39 -35.07c3.76,-2.18 7.84,-3.26 12.24,-3.26 4.42,0 8.5,1.08 12.25,3.26 3.74,2.18 6.71,5.13 8.88,8.89 2.17,3.74 3.26,7.82 3.26,12.24 0,4.4 -1.09,8.49 -3.26,12.23 -2.17,3.76 -5.14,6.73 -8.88,8.92 -3.75,2.18 -7.83,3.27 -12.25,3.27 -4.4,0 -8.48,-1.09 -12.24,-3.27 -3.74,-2.19 -6.71,-5.16 -8.87,-8.92 -2.18,-3.74 -3.28,-7.83 -3.28,-12.23 0,-4.42 1.1,-8.5 3.28,-12.24 2.16,-3.76 5.13,-6.71 8.87,-8.89zm12.24 35.07c3.84,0 7.13,-1.36 9.86,-4.07 2.73,-2.71 4.08,-6 4.08,-9.87 0,-3.82 -1.35,-7.08 -4.08,-9.81 -2.73,-2.72 -6.02,-4.09 -9.86,-4.09 -3.87,0 -7.16,1.35 -9.87,4.06 -2.71,2.71 -4.06,5.99 -4.06,9.84 0,3.87 1.35,7.16 4.06,9.87 2.71,2.71 6,4.07 9.87,4.07zm58.66 -38.33c6.32,0 11.19,2.1 14.61,6.31 3.42,4.21 5.13,10.23 5.13,18.08l0 23.25 -11.61 0 0 -23.25c0,-4.45 -0.97,-7.87 -2.89,-10.29 -1.92,-2.4 -4.65,-3.61 -8.18,-3.61 -3.53,0 -6.24,1.21 -8.15,3.61 -1.92,2.42 -2.87,5.84 -2.87,10.29l0 23.25 -11.61 0 0 -46.46 11.61 0 0 4.35c3.41,-3.69 8.05,-5.53 13.96,-5.53z"/>
  <path class="fil3" d="M691.3 38.34l27.86 61.71 -55.75 0 27.89 -61.71zm0 24.21l-13.12 29.04 26.21 0 -13.09 -29.04z"/>
  <path id="_1" class="fil3" d="M749.73 40.33c9.78,0 16.78,1.41 21.03,4.23 4.23,2.81 6.35,7.49 6.35,14.02 0,6.54 -2.12,11.21 -6.35,14.03 -4.25,2.82 -11.25,4.23 -21.03,4.23l-10.93 0 0 23.21 -10.93 0 0 -59.72 21.86 0zm0 27.53c6.03,0 10.27,-0.69 12.75,-2.09 2.46,-1.4 3.7,-3.79 3.7,-7.19 0,-3.4 -1.24,-5.79 -3.7,-7.18 -2.48,-1.4 -6.72,-2.09 -12.75,-2.09l-10.93 0 0 18.55 10.93 0z"/>
  <polygon id="_2" class="fil3" points="802.06,91.1 809.03,91.1 809.03,100.05 784.12,100.05 784.12,91.1 791.09,91.1 791.09,49.31 784.12,49.31 784.12,40.33 809.03,40.33 809.03,49.31 802.06,49.31 "/>
  <path class="fil4" d="M134.34 31.31c-0.01,-0.07 -0.05,-0.12 -0.07,-0.19 -0.04,-0.11 -0.08,-0.23 -0.14,-0.33 -0.04,-0.07 -0.1,-0.13 -0.15,-0.2 -0.06,-0.08 -0.12,-0.17 -0.19,-0.25 -0.06,-0.06 -0.14,-0.11 -0.21,-0.16 -0.08,-0.06 -0.15,-0.13 -0.24,-0.18 0,0 0,0 0,-0.01 0,0 0,0 0,0l-26.02 -14.98c-0.67,-0.38 -1.5,-0.38 -2.17,0l-26.01 14.98c-0.01,0 -0.01,0 -0.01,0 0,0 0,0 0,0 -0.09,0.05 -0.16,0.13 -0.24,0.19 -0.07,0.05 -0.15,0.1 -0.21,0.16 -0.07,0.08 -0.13,0.17 -0.19,0.25 -0.05,0.07 -0.11,0.13 -0.15,0.2 -0.06,0.1 -0.1,0.22 -0.14,0.33 -0.02,0.06 -0.06,0.12 -0.07,0.18 -0.05,0.19 -0.08,0.38 -0.08,0.57l0 28.45 -21.68 12.48 0 -55.65c0,-0.2 -0.03,-0.39 -0.08,-0.57 -0.01,-0.06 -0.05,-0.12 -0.07,-0.18 -0.04,-0.12 -0.08,-0.23 -0.14,-0.34 -0.04,-0.07 -0.1,-0.13 -0.15,-0.19 -0.06,-0.09 -0.12,-0.18 -0.19,-0.25 -0.07,-0.07 -0.14,-0.11 -0.22,-0.17 -0.07,-0.06 -0.15,-0.13 -0.23,-0.18 0,0 0,0 0,0 -0.01,0 -0.01,0 -0.01,0l-26.01 -14.98c-0.67,-0.39 -1.5,-0.39 -2.17,0l-26.02 14.98c0,0 0,0 0,0 0,0 0,0 0,0 -0.09,0.05 -0.16,0.12 -0.24,0.18 -0.07,0.06 -0.15,0.11 -0.21,0.17 -0.07,0.07 -0.13,0.16 -0.19,0.25 -0.05,0.06 -0.11,0.12 -0.15,0.19 -0.06,0.11 -0.1,0.22 -0.14,0.34 -0.02,0.06 -0.06,0.12 -0.07,0.18 -0.05,0.18 -0.08,0.37 -0.08,0.57l0 89.11c0,0.77 0.41,1.49 1.09,1.88l52.03 29.95c0.12,0.07 0.24,0.11 0.36,0.15 0.06,0.02 0.11,0.05 0.17,0.07 0.18,0.05 0.37,0.07 0.55,0.07 0.19,0 0.38,-0.02 0.56,-0.07 0.05,-0.01 0.1,-0.04 0.15,-0.06 0.12,-0.04 0.25,-0.09 0.37,-0.16l52.04 -29.95c0.67,-0.39 1.09,-1.11 1.09,-1.88l0 -28.45 24.93 -14.36c0.67,-0.38 1.08,-1.1 1.08,-1.88l0 -29.7c0,-0.19 -0.03,-0.38 -0.08,-0.56zm-80.14 72.45l-21.64 -12.24 22.72 -13.09c0,0 0,0 0,0l24.94 -14.35 21.66 12.47 -15.89 9.07 -31.79 18.14zm49.87 -55.66l0 24.7 -9.11 -5.24 -12.57 -7.24 0 -24.7 9.1 5.24 12.58 7.24zm2.16 -28.71l21.68 12.48 -21.68 12.48 -21.67 -12.48 21.67 -12.48zm-66.77 63.15l-9.11 5.24 0 -54.4 12.58 -7.24 9.1 -5.24 0 54.4 -12.57 7.24zm-11.28 -77.87l21.67 12.48 -21.67 12.47 -21.67 -12.47 21.67 -12.48zm-23.85 16.23l9.11 5.24 12.57 7.24 0 58.15c0,0 0.01,0.01 0.01,0.01 0,0 -0.01,0 -0.01,0 0,0.08 0.03,0.16 0.04,0.24 0.01,0.11 0.01,0.22 0.04,0.32 0,0 0,0 0,0.01 0.03,0.08 0.07,0.16 0.1,0.24 0.04,0.09 0.07,0.19 0.12,0.27 0,0 0,0 0,0.01 0.05,0.07 0.11,0.14 0.16,0.21 0.06,0.07 0.11,0.16 0.18,0.23 0,0 0,0 0.01,0 0.06,0.06 0.14,0.11 0.2,0.16 0.08,0.06 0.15,0.13 0.24,0.18 0,0 0,0 0.01,0 0,0.01 0,0.01 0.01,0.01l24.91 14.1 0 24.94 -47.7 -27.46 0 -84.1 0 0zm99.74 84.1l-47.7 27.47 0 -24.95 35.32 -20.17 12.38 -7.06 0 24.71zm26.01 -44.68l-21.68 12.48 0 -24.7 12.58 -7.24 9.1 -5.24 0 24.7z"/>
 </g>
</svg>
